<?xml version="1.0" standalone="no"?>
<!DOCTYPE svg PUBLIC "-//W3C//DTD SVG 20010904//EN"
 "http://www.w3.org/TR/2001/REC-SVG-20010904/DTD/svg10.dtd">
<svg version="1.0" xmlns="http://www.w3.org/2000/svg"
 width="1024.000000pt" height="1024.000000pt" viewBox="0 0 1024.000000 1024.000000"
 preserveAspectRatio="xMidYMid meet">

<g transform="translate(0.000000,1024.000000) scale(0.100000,-0.100000)"
fill="#000000" stroke="none">
<path d="M4905 9569 c-818 -61 -1584 -348 -2237 -838 -917 -687 -1501 -1695
-1648 -2843 -79 -624 -29 -1209 152 -1768 282 -872 906 -1618 1768 -2115 338
-195 773 -371 1200 -485 69 -18 127 -35 129 -36 3 -3 -36 -57 -69 -96 -3 -5
-72 10 -152 32 -805 217 -1399 545 -1947 1075 -294 285 -529 597 -755 1005
-57 104 -42 60 37 -103 274 -569 703 -1108 1197 -1502 390 -312 855 -569 1307
-721 175 -59 177 -60 279 -151 96 -85 91 -93 48 76 -20 78 -22 101 -13 140 28
126 102 193 384 351 72 40 165 97 207 126 43 30 86 54 97 54 10 0 33 -14 51
-30 51 -47 41 -92 -51 -233 -91 -140 -86 -134 -81 -91 3 25 1 35 -6 30 -20
-12 -143 -203 -189 -293 -51 -99 -50 -95 -8 -299 27 -130 42 -162 84 -187 l31
-18 0 50 c0 59 27 137 72 206 l32 50 8 -40 c30 -137 41 -177 70 -234 39 -81
141 -184 223 -228 65 -34 154 -63 193 -63 l24 0 -26 31 c-14 17 -29 41 -32 55
-5 20 -10 23 -33 16 -47 -13 -126 -5 -172 18 -86 43 -102 70 -149 245 -39 145
-37 184 13 289 66 139 136 212 287 299 37 22 62 45 77 73 l23 41 -30 65 c-16
36 -46 126 -67 199 l-38 134 -6 -68 c-3 -37 -11 -73 -17 -79 -34 -34 -142 12
-344 146 -496 329 -963 867 -1259 1451 -170 337 -272 641 -333 995 -38 223
-49 385 -43 644 9 409 59 623 244 1060 159 372 225 629 249 967 6 94 6 97 -35
215 -24 65 -53 163 -66 217 l-24 98 -133 142 c-73 78 -171 182 -218 232 -46
49 -98 102 -115 116 -28 25 -29 28 -15 55 24 46 187 204 291 282 178 132 463
290 657 363 35 13 80 38 100 55 157 132 377 232 596 270 133 24 379 14 546
-21 522 -109 974 -397 1248 -793 289 -419 390 -990 276 -1560 -13 -68 -21
-129 -17 -135 4 -6 36 -48 72 -92 157 -196 337 -507 434 -755 229 -581 310
-1285 226 -1950 -25 -198 -102 -617 -118 -648 -4 -7 -15 31 -25 85 -24 126
-85 375 -142 578 -67 238 -213 701 -214 680 0 -5 25 -138 55 -295 70 -361 122
-678 179 -1090 60 -427 76 -554 71 -559 -3 -2 -37 23 -77 55 -306 247 -522
519 -730 919 -42 83 -78 147 -78 142 0 -4 20 -64 45 -133 104 -285 233 -525
409 -758 37 -49 65 -90 63 -92 -8 -8 -272 234 -417 382 -178 182 -263 281
-382 444 -155 214 -339 543 -438 782 -24 59 -45 106 -46 105 -5 -5 88 -335
123 -437 117 -347 296 -708 500 -1010 l63 -95 -138 140 c-441 447 -815 1034
-976 1534 -42 128 -83 326 -93 437 -11 145 -21 121 -16 -41 14 -498 102 -908
285 -1339 32 -76 72 -165 89 -198 17 -33 29 -62 26 -64 -6 -6 -243 305 -358
471 -306 442 -592 944 -750 1313 -24 57 -46 95 -48 86 -2 -10 2 -74 9 -143 56
-602 323 -1279 748 -1901 345 -504 764 -955 1365 -1470 86 -73 157 -137 157
-141 0 -10 -67 -19 -151 -19 -106 0 -244 26 -384 72 l-120 39 -59 -17 c-54
-17 -61 -22 -97 -79 -36 -57 -121 -148 -160 -171 -9 -5 -28 -36 -43 -68 -34
-75 -120 -204 -186 -278 -51 -57 -107 -104 -115 -96 -7 7 70 163 107 216 17
26 52 71 76 99 43 51 44 53 20 53 -31 0 -94 -45 -129 -91 -44 -58 -86 -140
-118 -232 -32 -91 -39 -141 -21 -152 22 -13 8 -25 -29 -25 -31 0 -44 6 -60 26
-42 54 -21 213 49 369 17 39 25 63 17 55 -37 -38 -171 -218 -188 -252 -18 -36
-19 -42 -4 -103 23 -100 53 -145 147 -219 l47 -38 -5 34 c-6 32 -2 37 49 77
59 45 274 262 301 304 14 20 28 26 79 31 281 32 692 140 992 262 107 44 128
49 195 49 l76 0 449 -321 c248 -177 466 -331 485 -343 43 -26 117 -28 167 -4
44 21 84 80 90 135 4 31 -28 194 -115 588 -67 300 -124 574 -127 609 l-7 63
124 127 c152 154 237 250 359 406 305 390 570 875 733 1343 311 894 325 1869
39 2747 -349 1073 -1083 1944 -2076 2465 -655 343 -1445 512 -2152 459z m3832
-4702 c9 -239 -15 -408 -102 -723 -146 -531 -324 -931 -587 -1322 -184 -272
-311 -412 -373 -412 -19 0 -75 56 -75 74 0 6 26 29 56 51 240 171 647 790 808
1230 116 315 226 848 243 1168 8 161 23 129 30 -66z m-3727 -1349 c196 -269
544 -655 846 -939 305 -288 590 -517 1359 -1094 314 -235 576 -432 583 -438
12 -10 -99 184 -121 211 -5 7 -87 72 -181 144 -811 623 -1255 1040 -1620 1517
-79 105 -238 335 -214 311 8 -8 71 -85 139 -170 332 -413 701 -767 1114 -1067
232 -168 754 -523 769 -523 3 0 1 12 -4 28 -4 15 -11 39 -14 53 -4 18 -61 76
-178 180 -430 383 -878 798 -887 821 -2 6 30 -12 70 -39 41 -27 169 -111 284
-185 463 -299 650 -416 653 -409 2 5 -13 60 -31 122 -19 63 -44 157 -56 209
-24 106 -63 372 -56 379 7 7 103 -202 146 -318 100 -267 189 -634 189 -774 0
-78 34 -221 124 -527 41 -140 74 -256 72 -257 -1 -2 -20 10 -42 25 -21 16
-145 102 -274 192 -535 373 -1017 732 -1266 944 -180 153 -692 669 -854 860
-199 234 -473 597 -595 789 -34 53 -7 26 45 -45z m193 -1975 c9 -9 17 -29 17
-44 0 -35 -34 -55 -107 -65 -87 -11 -121 29 -68 82 52 52 117 63 158 27z
m-223 -149 c0 -3 -24 -49 -54 -103 -29 -53 -82 -151 -116 -218 -105 -203 -135
-220 -127 -72 3 58 11 91 35 142 58 125 181 257 238 257 13 0 24 -3 24 -6z"/>
<path d="M4695 8900 c-134 -29 -279 -86 -340 -134 -18 -14 -16 -14 25 0 171
59 450 80 659 50 238 -35 494 -118 746 -241 265 -129 418 -248 555 -430 72
-96 226 -328 254 -383 32 -62 27 -26 -7 54 -154 360 -350 619 -586 775 -180
120 -483 240 -741 294 -174 37 -433 44 -565 15z"/>
<path d="M4655 8581 c-111 -64 -199 -172 -246 -301 -34 -93 -35 -274 -1 -372
61 -177 208 -326 403 -409 170 -72 418 -108 612 -88 106 11 145 4 190 -31 l25
-20 23 47 c13 26 31 51 40 56 11 7 61 -14 188 -77 94 -47 169 -81 166 -76 -11
18 -300 246 -379 300 -43 28 -76 53 -74 54 2 2 82 -5 178 -15 249 -25 227 -28
232 31 3 28 8 53 11 56 7 7 225 -29 307 -51 30 -8 56 -13 57 -11 6 6 -375 171
-532 230 -241 92 -230 86 -164 79 62 -6 94 5 104 37 8 27 31 25 149 -9 54 -16
95 -26 90 -22 -31 26 -297 183 -448 264 -145 77 -172 95 -139 90 33 -4 45 -1
63 17 20 20 26 21 58 12 20 -6 38 -10 40 -8 7 7 -142 89 -248 137 -170 76
-239 94 -360 94 -94 0 -111 -3 -167 -29 -34 -15 -70 -37 -79 -47 -26 -29 -34
-23 -34 24 0 66 -8 70 -65 38z m416 -192 c53 -18 55 -27 6 -22 -65 8 -146 -31
-184 -88 -24 -36 -28 -53 -28 -110 0 -59 4 -73 30 -111 56 -81 161 -110 251
-69 53 24 95 76 115 143 l16 53 13 -45 c20 -72 9 -176 -26 -240 -59 -108 -167
-165 -302 -158 -125 6 -219 67 -279 180 -25 48 -28 63 -28 153 0 85 3 106 23
142 44 83 108 140 191 169 45 16 157 18 202 3z"/>
<path d="M3810 8464 c-274 -142 -466 -252 -572 -327 -49 -34 -88 -65 -88 -68
0 -3 66 -9 148 -12 246 -11 379 -47 630 -174 89 -45 159 -77 156 -70 -11 18
-93 117 -132 159 l-35 37 7 108 c10 159 43 300 101 436 4 9 3 17 -1 17 -5 0
-101 -48 -214 -106z"/>
<path d="M3371 7913 c13 -21 73 -117 133 -213 61 -96 127 -205 146 -242 l36
-68 11 43 c15 54 68 116 129 149 55 30 155 58 205 58 66 0 62 15 -13 58 -100
57 -226 114 -333 152 -85 30 -317 100 -330 100 -4 0 4 -17 16 -37z"/>
<path d="M5465 6826 c-421 -81 -740 -301 -983 -676 -66 -102 -177 -328 -226
-462 -68 -183 -142 -506 -160 -698 -5 -53 2 -33 38 105 197 755 571 1269 1097
1508 103 47 279 103 386 123 116 21 387 30 482 15 40 -6 76 -10 78 -8 6 6
-178 64 -262 83 -97 21 -360 27 -450 10z"/>
<path d="M3757 6114 c-13 -48 -38 -176 -35 -179 7 -8 97 60 93 70 -47 114 -53
126 -58 109z"/>
<path d="M3492 5860 c-39 -66 -72 -127 -72 -136 0 -23 80 -297 90 -308 5 -4
30 12 57 36 37 34 166 146 272 234 6 6 -33 145 -40 142 -3 -2 -35 -39 -69 -83
-35 -44 -66 -84 -70 -88 -5 -5 -25 62 -45 150 -21 87 -41 161 -44 165 -3 4
-39 -47 -79 -112z"/>
<path d="M3301 5316 l-44 -165 59 -93 c32 -51 73 -117 92 -146 l33 -53 125
263 c69 145 128 270 132 278 3 8 -45 -27 -107 -78 -62 -51 -116 -92 -119 -92
-4 0 -34 57 -67 126 l-60 126 -44 -166z"/>
<path d="M3270 4913 c0 -76 39 -394 66 -542 112 -615 423 -1244 876 -1773 92
-109 108 -124 65 -63 -53 77 -155 257 -213 380 -233 491 -389 1097 -459 1785
-9 85 -17 156 -18 157 -2 2 -48 -126 -63 -176 -6 -20 -19 -7 -144 146 l-110
134 0 -48z"/>
<path d="M4081 4894 c0 -11 3 -14 6 -6 3 7 2 16 -1 19 -3 4 -6 -2 -5 -13z"/>
<path d="M5634 4653 c3 -7 38 -83 78 -169 50 -108 74 -151 80 -140 4 8 15 42
24 76 23 89 5 180 -35 180 -10 0 -49 15 -85 34 -40 20 -65 28 -62 19z"/>
<path d="M5890 4195 c-14 -8 -33 -14 -43 -15 -14 0 -16 -4 -8 -17 16 -29 196
-219 187 -198 -5 11 -27 71 -49 133 -22 61 -45 112 -51 112 -6 -1 -22 -7 -36
-15z"/>
<path d="M6931 4000 c0 -214 -7 -260 -41 -260 -10 0 -29 9 -43 20 -27 22 -131
159 -198 262 -22 35 -38 54 -35 43 3 -11 10 -40 16 -65 47 -191 134 -393 201
-465 71 -76 119 -80 156 -12 29 52 23 300 -10 488 -40 223 -46 222 -46 -11z"/>
<path d="M4207 2925 c11 -22 22 -47 25 -55 4 -12 7 -10 16 6 10 18 6 26 -25
55 l-35 34 19 -40z"/>
<path d="M4470 2404 c0 -2 23 -37 52 -76 49 -67 53 -70 59 -47 12 42 10 44
-51 87 -33 22 -60 39 -60 36z"/>
<path d="M4418 1287 l-98 -102 0 -72 c0 -261 127 -454 401 -608 32 -19 59 -30
59 -25 0 5 -4 11 -9 15 -5 3 -19 36 -32 73 -12 37 -22 68 -23 69 -1 1 -21 -2
-44 -8 -54 -12 -110 2 -140 34 -13 13 -40 73 -61 133 -22 60 -51 140 -65 177
-39 102 -35 139 25 254 28 54 60 113 71 131 11 17 18 32 16 31 -2 0 -47 -47
-100 -102z"/>
</g>
</svg>
