<?xml version="1.0" encoding="UTF-8" standalone="no"?>
<!-- Created with Inkscape (http://www.inkscape.org/) -->

<svg
   version="1.1"
   id="svg1"
   width="507.30518"
   height="232.37862"
   viewBox="0 0 507.30518 232.37862"
   xmlns="http://www.w3.org/2000/svg"
   xmlns:svg="http://www.w3.org/2000/svg">
  <defs
     id="defs1" />
  <g
     id="g1"
     transform="translate(-11.117854,-16.171415)">
    <path
       style="fill:#feffff;fill-opacity:1"
       d="M 231.5,247.96124 C 188.07492,244.38798 137.30867,231.30038 106.47601,215.7299 86.714056,205.75012 67.300981,189.29248 61.75,177.81295 58.156867,170.38228 58.090916,167 61.53916,167 c 1.869303,0 5.496695,2.84643 13.75,10.78969 13.332932,12.83206 19.694032,17.78202 33.71084,26.23247 13.87928,8.36754 21.85422,11.95262 37.5,16.85786 48.6825,15.26286 95.16634,21.34039 138.5,18.10817 57.06418,-4.25636 94.6957,-14.89422 126.07307,-35.63895 11.00476,-7.27565 17.15804,-9.73187 22.98909,-9.17661 2.60663,0.24822 3.51073,0.83804 3.73932,2.43946 1.06665,7.47272 -25.72742,23.52531 -53.03753,31.77531 -23.89896,7.21954 -60.45356,14.50181 -90.76395,18.08165 -16.61826,1.96272 -47.7492,2.70597 -62.5,1.49219 z M 74.230576,230.52348 C 57.453968,221.71744 45.239967,213.18263 34.133717,202.5049 19.804658,188.72871 15.634679,179.79164 22,176.5 c 1.65,-0.85325 3.006497,-2.1023 3.014438,-2.77568 0.0079,-0.67338 -2.997817,-7.18851 -6.679463,-14.47808 -6.349226,-12.57132 -6.716271,-13.67997 -7.128348,-21.53106 -0.529743,-10.09291 1.261135,-17.91249 6.729922,-29.38512 C 28.280658,86.629791 47.770381,65.591431 72.5,49.431042 98.266002,32.593393 141.72174,15.426003 156.62666,16.196416 159.857,16.363387 162.42368,16.95 162.3304,17.5 c -0.0933,0.55 -5.49328,2.615435 -12,4.589855 C 102.37253,36.642344 62.251142,63.349812 41.426759,94.58337 31.262012,109.82902 27,122.98676 27,139.12187 c 0,12.66559 2.677451,21.3162 10.89495,35.20064 C 41.252728,179.99587 44,185.15831 44,185.7946 c 0,0.6363 -1.575,2.59012 -3.5,4.34183 -1.925,1.75171 -3.5,4.10093 -3.5,5.2205 0,6.23945 16.881791,20.91581 39.277138,34.14598 8.188996,4.83769 12.032557,7.5671 10.531879,7.47894 -0.169959,-0.01 -5.830258,-2.91625 -12.578441,-6.45837 z M 450.55,226.1732 c 0.5225,-0.45473 3.875,-2.88421 7.45,-5.39882 3.575,-2.51462 8.67749,-6.75506 11.33886,-9.42321 7.72608,-7.74574 10.09948,-12.75583 12.17081,-25.69184 0.47848,-2.98821 2.00991,-5.21516 6.89972,-10.03328 6.78722,-6.68773 9.50691,-12.19292 12.16582,-24.62605 3.8975,-18.22487 -0.58643,-39.29946 -12.00292,-56.41401 C 468.86674,65.045244 429.8484,38.773986 383,23.503602 c -4.675,-1.523831 -9.05755,-3.211515 -9.73899,-3.750409 -4.72515,-3.736705 8.9287,-3.664946 23.88231,0.125516 59.40567,15.058237 107.78431,53.999818 118.99715,95.784791 3.21243,11.9712 3.01235,29.17095 -0.4634,39.8365 -3.2368,9.93232 -6.32503,14.8499 -15.61775,24.8691 l -7.29852,7.8691 0.60986,4.4494 c 0.76663,5.59319 -0.68985,8.54716 -7.53795,15.28809 -6.41865,6.3182 -17.20802,13.12601 -26.1178,16.47964 -6.70372,2.52327 -11.01991,3.3323 -9.16491,1.71787 z M 229.5,225.39201 C 200.5159,222.46563 177.94529,218.07777 158.32182,211.55455 116.28369,197.58025 86.293236,173.78933 77.429188,147.38379 75.131483,140.53905 74.842375,138.317 75.232559,130.50082 76.022836,114.66994 82.247151,102.75864 97.261901,88.343881 125.92716,60.824087 175.19816,41.010209 231,34.562342 c 23.7435,-2.743547 67.68196,-1.628862 98.5,2.498869 31.0001,4.152116 60.72421,15.127828 79.6806,29.42229 13.8701,10.459039 21.35325,21.382509 25.35823,37.016499 2.54053,9.91729 4.45127,13.21366 11.48454,19.81293 l 6.19521,5.81292 -0.41986,6.68708 c -0.80354,12.79804 -8.07347,26.36456 -21.29872,39.74585 -10.50368,10.62761 -21.75499,18.28856 -38.87698,26.47111 -23.96856,11.4545 -47.53401,17.54397 -83.57239,21.59564 -12.81511,1.44076 -69.21457,2.70909 -78.55063,1.76648 z m 54.55011,-7.42101 c 51.57809,-3.94605 76.13692,-11.61323 102.31265,-31.94166 6.806,-5.28563 16.5176,-11.81048 21.58135,-14.49966 10.27491,-5.45665 13.98028,-9.21592 17.27834,-17.52968 1.85816,-4.68406 2.17624,-7.42859 2.14404,-18.5 -0.0329,-11.30837 -0.38311,-14.05121 -2.69145,-21.07841 -4.2988,-13.08672 -13.23468,-25.667548 -25.13031,-35.380998 -28.62164,-23.37117 -65.55976,-35.41175 -120.24236,-39.194947 -34.88124,-2.413247 -68.68354,3.071753 -103.61794,16.813778 -16.52077,6.49872 -35.04832,16.587188 -44.18443,24.058935 -11.32939,9.265474 -29.4889,30.826032 -31.24827,37.100672 -1.271997,4.53646 -0.662288,17.31697 1.17743,24.68097 2.83986,11.36735 9.71105,24.5077 16.74989,32.03226 7.10298,7.5931 21.75615,17.6893 33.32095,22.95849 34.1364,15.55335 88.05552,23.88436 132.55011,20.48025 z M 247.5,195.33811 c -44.65428,-3.63583 -72.91901,-11.47136 -92.95544,-25.76906 -9.25434,-6.60376 -19.04305,-17.61271 -21.50042,-24.18062 -8.39182,-22.42915 7.50213,-43.42068 47.23834,-62.388853 14.89062,-7.108073 23.28485,-10.004475 28.93597,-9.984264 12.42812,0.04445 7.65965,6.490206 -12.18637,16.4729 -18.19856,9.154004 -32.93299,21.701777 -37.72191,32.123797 -4.00658,8.71942 -3.81731,16.88425 0.59935,25.85575 8.94694,18.17383 33.30387,31.52136 69.59048,38.1354 14.10097,2.57022 52.90635,2.62521 66.23691,0.0939 18.93861,-3.59626 30.71775,-8.20286 44.74502,-17.49894 13.60915,-9.01897 23.58823,-18.98651 27.60757,-27.57563 2.7118,-5.79499 3.08256,-7.54959 2.7289,-12.91428 C 369.80845,112.38799 356.3313,96.701644 335,86.018341 c -3.575,-1.790458 -6.71828,-3.457822 -6.98506,-3.705253 -0.26678,-0.24743 0.63322,-1.315786 2,-2.374122 2.10222,-1.627805 2.25397,-2.074973 0.98506,-2.902618 -3.41377,-2.226618 -24.78029,-5.738534 -46.21507,-7.596158 -4.24328,-0.36774 -8.51828,-1.262876 -9.5,-1.98919 -1.63556,-1.210063 -1.47381,-1.451552 1.93295,-2.885786 7.75381,-3.264323 30.30847,-1.085581 51.34799,4.960127 10.20694,2.932966 30.53576,12.497594 37.93413,17.847856 14.42206,10.429567 23.16656,22.858023 24.21459,34.415923 1.77701,19.59715 -17.49641,44.50398 -45.26729,58.49843 -22.11764,11.14564 -64.99255,17.73379 -97.9473,15.05056 z m 1,-30.40927 c -30.48113,-4.18093 -55.62189,-21.46572 -53.17285,-36.55742 1.19858,-7.38597 8.0335,-14.17913 20.47925,-20.35411 12.13226,-6.01944 28.35894,-8.81055 32.7129,-5.62686 1.58765,1.16092 1.71827,1.79273 0.79123,3.82735 -0.83988,1.84335 -3.26589,3.21516 -9.96042,5.6322 -26.75078,9.65829 -30.09675,26.51809 -7.35011,37.03601 9.96806,4.60918 21.1735,6.47737 34.94154,5.8255 18.32357,-0.86756 32.2522,-5.75603 39.61201,-13.90247 2.92368,-3.23615 3.44645,-4.54549 3.44645,-8.63192 0,-9.04845 -8.88913,-16.22682 -25.08584,-20.25796 -10.12655,-2.52035 -13.0694,-3.87453 -12.69092,-5.83983 0.97449,-5.06011 15.59476,-5.94332 28.10459,-1.69779 17.80172,6.04148 28.16064,16.8707 26.18938,27.37841 -3.6017,19.19872 -27.09403,32.61998 -59.01721,33.71676 -6.6,0.22676 -15.15,-0.0198 -19,-0.54787 z"
       id="path1" />
  </g>
</svg>
